<svg xmlns="http://www.w3.org/2000/svg" width="65.475" height="70.865" viewBox="0 0 65.475 70.865"><g transform="translate(0.5 0.5)"><g transform="translate(0 17.727)"><path d="M75.316,463.09H50.569c-4.565,0-8.3,3.987-8.3,8.859v34.42c0,4.873,3.734,8.859,8.3,8.859H82.68c4.564,0,8.289-3.987,8.3-8.859.012-5.559-.028-11.118.054-16.677.14-9.689.393-7.513-5.66-14.684L75.316,463.09Z" transform="translate(-42.27 -463.09)" fill="none" stroke="#ffd308" stroke-linecap="round" stroke-linejoin="round" stroke-miterlimit="22.926" stroke-width="1" fill-rule="evenodd"/><path d="M850.51,478.29V495.5l9.008.313" transform="translate(-818.615 -477.65)" fill="none" stroke="#ffd308" stroke-linecap="round" stroke-linejoin="round" stroke-miterlimit="22.926" stroke-width="1" fill-rule="evenodd"/></g><path d="M479.981,94.408c4.564,0,8.289-3.987,8.3-8.859.012-5.559-.028-11.118.054-16.677.14-9.689.393-7.513-5.66-14.684L472.616,42.27H447.869c-4.565,0-8.3,3.987-8.3,8.859" transform="translate(-423.891 -42.27)" fill="none" stroke="#3ca1d2" stroke-linecap="round" stroke-linejoin="round" stroke-miterlimit="22.926" stroke-width="1" fill-rule="evenodd"/><path d="M1247.82,57.47V73.978l9.008.3" transform="translate(-1200.246 -56.83)" fill="none" stroke="#3ca1d2" stroke-linecap="round" stroke-linejoin="round" stroke-miterlimit="22.926" stroke-width="1" fill-rule="evenodd"/><line x2="33.931" transform="translate(7.442 52.446)" stroke-width="1" stroke="#ffd308" stroke-linecap="round" stroke-linejoin="round" stroke-miterlimit="22.926" fill="none"/><line x2="18.417" transform="translate(7.428 47.435)" stroke-width="1" stroke="#ffd308" stroke-linecap="round" stroke-linejoin="round" stroke-miterlimit="22.926" fill="none"/><line x2="18.417" transform="translate(7.55 57.457)" stroke-width="1" stroke="#ffd308" stroke-linecap="round" stroke-linejoin="round" stroke-miterlimit="22.926" fill="none"/></g></svg>